<svg xmlns="http://www.w3.org/2000/svg" width="35" height="35" viewBox="0 0 35 35">
  <g id="Group_318" data-name="Group 318" transform="translate(-1822 -553)">
    <circle id="Ellipse_2968" data-name="Ellipse 2968" cx="17.5" cy="17.5" r="17.5" transform="translate(1822 553)" fill="#fff"/>
    <path id="Path_30364" data-name="Path 30364" d="M16.342,1.251A15.712,15.712,0,0,0,12.362,0a11.68,11.68,0,0,0-.51,1.059,14.614,14.614,0,0,0-4.411,0A11.315,11.315,0,0,0,6.925,0,15.66,15.66,0,0,0,2.942,1.254,16.692,16.692,0,0,0,.082,12.431a15.913,15.913,0,0,0,4.881,2.5A12.143,12.143,0,0,0,6.009,13.21a10.277,10.277,0,0,1-1.646-.8c.138-.1.273-.209.4-.319a11.249,11.249,0,0,0,9.76,0c.132.11.267.217.4.319a10.25,10.25,0,0,1-1.649.8,12.082,12.082,0,0,0,1.045,1.722,15.881,15.881,0,0,0,4.884-2.5A16.676,16.676,0,0,0,16.342,1.251Zm-9.9,8.93A1.873,1.873,0,0,1,4.707,8.208,1.863,1.863,0,0,1,6.441,6.233,1.851,1.851,0,0,1,8.176,8.208,1.86,1.86,0,0,1,6.441,10.181Zm6.409,0a1.873,1.873,0,0,1-1.734-1.973,1.863,1.863,0,0,1,1.734-1.974,1.851,1.851,0,0,1,1.734,1.974A1.861,1.861,0,0,1,12.851,10.181Z" transform="translate(1830 563)" fill="#131313"/>
  </g>
</svg>
