<svg xmlns="http://www.w3.org/2000/svg" width="35" height="35" viewBox="0 0 35 35">
  <g id="Group_473" data-name="Group 473" transform="translate(4144 -542)">
    <g id="Group_470" data-name="Group 470" transform="translate(-5966 7)">
      <circle id="Ellipse_2968" data-name="Ellipse 2968" cx="17.5" cy="17.5" r="17.5" transform="translate(1822 535)" fill="#fff"/>
    </g>
    <path id="Intersection_2" data-name="Intersection 2" d="M15.908,30.042a7.371,7.371,0,0,1-2.44-.467,5.137,5.137,0,0,1-2.939-2.94,7.319,7.319,0,0,1-.467-2.439C10.012,23.131,10,22.787,10,20.115v-.128c0-2.671.012-3.016.061-4.08a7.325,7.325,0,0,1,.467-2.44,5.137,5.137,0,0,1,2.939-2.94,7.371,7.371,0,0,1,2.44-.467c1.072-.049,1.414-.06,4.144-.06s3.073.012,4.145.06a7.371,7.371,0,0,1,2.44.467,5.137,5.137,0,0,1,2.939,2.94,7.371,7.371,0,0,1,.467,2.44c.05,1.072.06,1.414.06,4.144s-.011,3.072-.06,4.145a7.365,7.365,0,0,1-.467,2.439,5.137,5.137,0,0,1-2.939,2.94,7.371,7.371,0,0,1-2.44.467c-1.072.049-1.414.06-4.145.06S16.979,30.091,15.908,30.042Zm.083-18.173a5.563,5.563,0,0,0-1.867.346,3.328,3.328,0,0,0-1.908,1.908,5.539,5.539,0,0,0-.346,1.866c-.049,1.06-.059,1.378-.059,4.062s.011,3,.059,4.062a5.551,5.551,0,0,0,.346,1.867,3.335,3.335,0,0,0,1.908,1.908,5.569,5.569,0,0,0,1.867.346c1.059.049,1.377.059,4.061.059s3-.01,4.062-.059a5.575,5.575,0,0,0,1.867-.346,3.335,3.335,0,0,0,1.908-1.908,5.6,5.6,0,0,0,.346-1.867c.049-1.06.059-1.378.059-4.062s-.01-3-.059-4.062a5.586,5.586,0,0,0-.346-1.866,3.328,3.328,0,0,0-1.908-1.908,5.568,5.568,0,0,0-1.867-.346c-1.06-.048-1.378-.059-4.062-.059S17.05,11.821,15.99,11.869Zm-1.1,8.182a5.161,5.161,0,1,1,5.161,5.162A5.162,5.162,0,0,1,14.89,20.051Zm1.812,0a3.35,3.35,0,1,0,3.35-3.351A3.35,3.35,0,0,0,16.7,20.051Zm7.51-5.366a1.206,1.206,0,1,1,1.206,1.207A1.206,1.206,0,0,1,24.211,14.685Z" transform="translate(-4147 540)" fill="#131313"/>
  </g>
</svg>
