<svg xmlns="http://www.w3.org/2000/svg" width="30" height="30" viewBox="0 0 30 30">
  <path id="icon-twitter-6ad889010d07b5b6caa1e8c40d71131641bb97d9605ef8ef62d8cfe8ace6a817" d="M15,.27a15,15,0,1,0,15,15A15.044,15.044,0,0,0,15,.27Zm6.625,11.75v.375A9.257,9.257,0,0,1,12.25,21.77a8.446,8.446,0,0,1-5-1.5,6.268,6.268,0,0,0,4.875-1.375A3.391,3.391,0,0,1,9,16.645a3.046,3.046,0,0,0,1.5,0,3.244,3.244,0,0,1-2.625-3.25,3.328,3.328,0,0,0,1.5.375,3.435,3.435,0,0,1-1.5-2.75,2.512,2.512,0,0,1,.5-1.625,9.688,9.688,0,0,0,6.75,3.5A2.439,2.439,0,0,1,15,12.02a3.271,3.271,0,0,1,5.625-2.25c.75-.125,2.5-.375,2.5-.375C22.625,10.145,22.25,11.52,21.625,12.02Z" transform="translate(0 -0.27)" fill="#fff" fill-rule="evenodd"/>
</svg>
