<svg xmlns="http://www.w3.org/2000/svg" width="30" height="30" viewBox="0 0 30 30">
  <path id="icon-youtube-6a45b3f582b34fb83cf3d2a4600f50f0c4431309a4434f853eac416be16aa37c" d="M15,.27a15,15,0,1,0,15,15A15.044,15.044,0,0,0,15,.27Zm10.219,15.75a31.263,31.263,0,0,1-.187,3.188,4.111,4.111,0,0,1-.844,1.969,3.024,3.024,0,0,1-1.794.795h0c-.106.017-.2.031-.269.049-2.906.188-7.125.188-7.125.188s-5.344,0-6.937-.187c-.083-.017-.184-.03-.3-.046a3.2,3.2,0,0,1-1.952-.8,3.8,3.8,0,0,1-.844-1.969,31.263,31.263,0,0,1-.187-3.187v-1.5a31.264,31.264,0,0,1,.188-3.187,4.11,4.11,0,0,1,.844-1.969,2.924,2.924,0,0,1,1.8-.8h0c.095-.014.181-.027.258-.042C10.688,8.332,15,8.332,15,8.332s4.313,0,7.125.188a2.975,2.975,0,0,1,2.063.844,3.8,3.8,0,0,1,.844,1.969,31.264,31.264,0,0,1,.188,3.187Zm-6.844-.938L12.844,17.8V12.27Z" transform="translate(0 -0.27)" fill="#fff" fill-rule="evenodd"/>
</svg>
