<svg xmlns="http://www.w3.org/2000/svg" width="40" height="40" viewBox="0 0 40 40">
  <path id="Exclusion_5" data-name="Exclusion 5" d="M20,40A20,20,0,0,1,5.858,5.858,20,20,0,0,1,34.142,34.142,19.869,19.869,0,0,1,20,40ZM20,1.081a18.919,18.919,0,0,0-13.377,32.3A18.919,18.919,0,0,0,33.378,6.622,18.8,18.8,0,0,0,20,1.081Zm5.217,26.955h0a13.2,13.2,0,0,1-1.13-1.861,11.018,11.018,0,0,0,1.783-.868c-.162-.121-.3-.235-.435-.344a12.244,12.244,0,0,1-5.262,1.2,12.415,12.415,0,0,1-5.291-1.2c-.13.111-.273.224-.436.345a11,11,0,0,0,1.78.866,13.087,13.087,0,0,1-1.13,1.862,17.262,17.262,0,0,1-5.277-2.7A18.091,18.091,0,0,1,12.91,13.247a16.968,16.968,0,0,1,4.306-1.355,12.346,12.346,0,0,1,.558,1.144,15.767,15.767,0,0,1,2.373-.181,16.185,16.185,0,0,1,2.4.181c.149-.358.366-.807.551-1.144a17.024,17.024,0,0,1,4.3,1.352A17.916,17.916,0,0,1,30.5,25.33a17.235,17.235,0,0,1-5.28,2.706Zm-1.595-9.406a2.02,2.02,0,0,0-1.875,2.135A2.019,2.019,0,0,0,23.622,22.9,2.019,2.019,0,0,0,25.5,20.765a2.22,2.22,0,0,0-.615-1.591A1.766,1.766,0,0,0,23.622,18.631Zm-6.929,0a2.02,2.02,0,0,0-1.875,2.135A2.019,2.019,0,0,0,16.693,22.9a1.749,1.749,0,0,0,1.241-.53,2.269,2.269,0,0,0,.634-1.6,2.221,2.221,0,0,0-.616-1.591A1.762,1.762,0,0,0,16.693,18.631Z" fill="#fff"/>
</svg>
