<svg xmlns="http://www.w3.org/2000/svg" width="40" height="40" viewBox="0 0 40 40">
  <path id="Subtraction_27" data-name="Subtraction 27" d="M20,40A20,20,0,0,1,5.858,5.858,20,20,0,1,1,34.142,34.142,19.87,19.87,0,0,1,20,40ZM19.919,1A18.9,18.9,0,0,0,6.557,33.28,18.9,18.9,0,1,0,33.28,6.557,18.781,18.781,0,0,0,19.919,1Zm.132,29.1c-2.7,0-3.063-.012-4.144-.06a7.427,7.427,0,0,1-2.44-.467,5.137,5.137,0,0,1-2.939-2.94,7.369,7.369,0,0,1-.467-2.439c-.05-1.065-.061-1.418-.061-4.081v-.128c0-2.663.012-3.016.061-4.08a7.371,7.371,0,0,1,.467-2.44,5.137,5.137,0,0,1,2.939-2.94,7.427,7.427,0,0,1,2.44-.467c1.081-.049,1.439-.06,4.144-.06s3.064.012,4.145.06a7.418,7.418,0,0,1,2.44.467,5.137,5.137,0,0,1,2.939,2.94,7.427,7.427,0,0,1,.467,2.44c.05,1.083.06,1.408.06,4.144s-.011,3.061-.06,4.145a7.416,7.416,0,0,1-.467,2.439,5.137,5.137,0,0,1-2.939,2.94,7.418,7.418,0,0,1-2.44.467C23.115,30.091,22.757,30.1,20.051,30.1Zm0-18.292c-2.677,0-3,.01-4.061.059a5.557,5.557,0,0,0-1.867.347,3.328,3.328,0,0,0-1.908,1.908,5.538,5.538,0,0,0-.346,1.866c-.049,1.079-.059,1.4-.059,4.062s.01,2.983.059,4.062a5.556,5.556,0,0,0,.346,1.867,3.335,3.335,0,0,0,1.908,1.908,5.541,5.541,0,0,0,1.867.346c1.045.048,1.361.059,4.061.059s3.017-.01,4.062-.059a5.557,5.557,0,0,0,1.867-.346,3.335,3.335,0,0,0,1.908-1.908,5.589,5.589,0,0,0,.346-1.867c.048-1.046.059-1.362.059-4.062s-.01-3.016-.059-4.062a5.586,5.586,0,0,0-.346-1.866,3.328,3.328,0,0,0-1.908-1.908,5.572,5.572,0,0,0-1.867-.347C23.047,11.821,22.728,11.811,20.051,11.811Zm0,13.4a5.162,5.162,0,1,1,5.162-5.162A5.167,5.167,0,0,1,20.051,25.213Zm0-8.512A3.351,3.351,0,1,0,23.4,20.051,3.354,3.354,0,0,0,20.051,16.7Zm5.366-.808a1.206,1.206,0,1,1,1.206-1.207A1.208,1.208,0,0,1,25.417,15.892Z" fill="#fff"/>
</svg>
