<svg xmlns="http://www.w3.org/2000/svg" width="40" height="40" viewBox="0 0 40 40">
  <path id="Exclusion_6" data-name="Exclusion 6" d="M20,40A20,20,0,0,1,5.858,5.858,20,20,0,0,1,34.142,34.142,19.869,19.869,0,0,1,20,40ZM20,1.081a19.069,19.069,0,0,0-3.813.384A18.912,18.912,0,0,0,1.465,16.187a19.1,19.1,0,0,0,0,7.625,18.811,18.811,0,0,0,2.847,6.765,18.956,18.956,0,0,0,8.324,6.855,18.722,18.722,0,0,0,3.551,1.1,19.1,19.1,0,0,0,7.625,0,18.832,18.832,0,0,0,6.765-2.846,18.964,18.964,0,0,0,6.855-8.325,18.722,18.722,0,0,0,1.1-3.551,19.1,19.1,0,0,0,0-7.625,18.722,18.722,0,0,0-1.1-3.551A18.9,18.9,0,0,0,20,1.081ZM25.007,28.64a1.274,1.274,0,0,1-.892-.362c-.621-.533-1.977-1.523-4.033-2.942-.381.32-1.383,1.177-2.427,2.22-.414.414-.73.624-.941.624a.228.228,0,0,1-.182-.08.834.834,0,0,1-.1-.541l.431-4.582.009,0a.34.34,0,0,1,.053-.085l0,0c.216-.193,2.172-1.934,4.156-3.766,1.222-1.129,2.2-2.056,2.906-2.754a8.19,8.19,0,0,0,1.419-1.594.051.051,0,0,0-.007-.047.081.081,0,0,0-.067-.025.225.225,0,0,0-.06.009c-.46.169-7.143,4.368-11.085,6.856l-.03.019a.5.5,0,0,1-.147.022.512.512,0,0,1-.087-.008L9.311,20.1a.875.875,0,0,1-.254-.175.515.515,0,0,1-.121-.557c.034-.1.1-.187.331-.347.934-.65,15.894-6.056,18.883-7.132l.05-.018a2.026,2.026,0,0,1,.556-.1.7.7,0,0,1,.251.039.436.436,0,0,1,.3.324,1.473,1.473,0,0,1,.04.408c0,.075-.007.152-.014.225l0,.046c0,.04-.006.083-.009.131-.107,1.717-3.342,14.768-3.374,14.9a1.323,1.323,0,0,1-.185.387.894.894,0,0,1-.71.408Z" fill="#fff"/>
</svg>
