<svg xmlns="http://www.w3.org/2000/svg" width="40" height="40" viewBox="0 0 40 40">
  <path id="Exclusion_4" data-name="Exclusion 4" d="M20,40A20,20,0,0,1,5.858,5.858,20,20,0,0,1,34.142,34.142,19.869,19.869,0,0,1,20,40ZM20,1.081A18.919,18.919,0,1,0,38.919,20,18.941,18.941,0,0,0,20,1.081ZM16.532,28.2a10.625,10.625,0,0,1-6.307-1.891,7.888,7.888,0,0,0,6.149-1.734,4.265,4.265,0,0,1-3.942-2.838,3.842,3.842,0,0,0,1.891,0,3.877,3.877,0,0,1-2.365-1.4,4.3,4.3,0,0,1-.946-2.7,4.223,4.223,0,0,0,1.892.473,4.335,4.335,0,0,1-1.892-3.469,3.164,3.164,0,0,1,.631-2.049A12.255,12.255,0,0,0,20.158,17,3.092,3.092,0,0,1,20,15.9a4.125,4.125,0,0,1,7.094-2.838c.919-.153,3.062-.46,3.153-.473a10.047,10.047,0,0,0-.688,1.342,5.657,5.657,0,0,1-1.2,1.969v.473a12.26,12.26,0,0,1-3.015,7.981A11.324,11.324,0,0,1,16.532,28.2Z" fill="#fff"/>
</svg>
