<svg xmlns="http://www.w3.org/2000/svg" width="40" height="40" viewBox="0 0 40 40">
  <path id="Exclusion_7" data-name="Exclusion 7" d="M20,40A20,20,0,0,1,5.858,5.858,20,20,0,0,1,34.142,34.142,19.869,19.869,0,0,1,20,40ZM20,1.081A18.919,18.919,0,1,0,38.919,20,18.94,18.94,0,0,0,20,1.081ZM20,28.75c-.067,0-6.764,0-8.751-.237-.1-.02-.219-.036-.376-.057A4.037,4.037,0,0,1,8.412,27.45a4.814,4.814,0,0,1-1.064-2.483,39.9,39.9,0,0,1-.236-4.02V19.054a39.927,39.927,0,0,1,.236-4.02A5.222,5.222,0,0,1,8.412,12.55a3.667,3.667,0,0,1,2.275-1.011c.134-.02.235-.035.326-.053,3.507-.235,8.933-.237,8.987-.237s5.48,0,8.986.237a3.783,3.783,0,0,1,2.6,1.063,4.814,4.814,0,0,1,1.064,2.483,39.9,39.9,0,0,1,.236,4.02v1.892a39.926,39.926,0,0,1-.236,4.02,5.222,5.222,0,0,1-1.064,2.483,3.833,3.833,0,0,1-2.261,1c-.127.02-.247.039-.339.061C25.363,28.748,20.054,28.75,20,28.75ZM17.28,16.217v6.976l6.977-3.43Z" fill="#fff"/>
</svg>
