<svg xmlns="http://www.w3.org/2000/svg" width="45" height="45" viewBox="0 0 45 45">
  <g id="Group_133" data-name="Group 133" transform="translate(0.357 -0.094)">
    <rect id="Rectangle_5300" data-name="Rectangle 5300" width="45" height="45" transform="translate(-0.357 0.094)" fill="none"/>
    <g id="Group_132" data-name="Group 132" transform="translate(3.535 5.653)">
      <path id="Path_30274" data-name="Path 30274" d="M32.622,25.175c-1.572,6.754-4.677,9.486-10.515,8.925a19.671,19.671,0,0,1-3.031-.505l-3.143-.748c-7.8-1.852-10.216-5.707-8.382-13.527l1.834-7.839a19.6,19.6,0,0,1,1.385-4.116C12.958,2.836,16.682,1.619,22.931,3.1l3.125.73c7.839,1.834,10.234,5.707,8.4,13.527Z" transform="translate(2.354 -2.501)" fill="none" stroke="#ffd45e" stroke-linecap="round" stroke-linejoin="round" stroke-width="2"/>
      <path id="Path_30275" data-name="Path 30275" d="M22.05,33.857l-2.956.973c-7.428,2.395-11.338.393-13.752-7.035L2.948,20.4C.553,12.977,2.536,9.048,9.964,6.653L12.92,5.68a19.128,19.128,0,0,1,2.189-.58,19.6,19.6,0,0,0-1.385,4.116l-1.834,7.839c-1.834,7.821.58,11.675,8.382,13.527l3.143.748a19.671,19.671,0,0,0,3.031.505A17.535,17.535,0,0,1,22.05,33.857Z" transform="translate(-1.986 -0.238)" fill="none" stroke="#ffd45e" stroke-linecap="round" stroke-linejoin="round" stroke-width="2"/>
    </g>
  </g>
</svg>
