<svg xmlns="http://www.w3.org/2000/svg" width="45" height="45" viewBox="0 0 45 45">
  <g id="Group_139" data-name="Group 139" transform="translate(0 0.108)">
    <rect id="Rectangle_5301" data-name="Rectangle 5301" width="45" height="45" transform="translate(0 -0.108)" fill="none"/>
    <g id="Group_138" data-name="Group 138" transform="translate(3.715 5.883)">
      <g id="Group_137" data-name="Group 137">
        <path id="Path_30282" data-name="Path 30282" d="M24.64,43.575l.132-.208,7.961-12.455a.272.272,0,0,1,.478.035c1.33,2.981,2.478,6.688,1.94,9a14.061,14.061,0,0,1-1.566,3.424c-.091.173-.192.343-.3.506a.271.271,0,0,1-.226.119H24.873A.272.272,0,0,1,24.64,43.575Z" transform="translate(-22.395 -24.185)" fill="none" stroke="#ffd45e" stroke-width="2"/>
        <path id="Path_30283" data-name="Path 30283" d="M58.732,41.705v1.971a.283.283,0,0,1-.17.258,9.8,9.8,0,0,0-3.6,2.453c-2.239,3.116-3.949,7.572-7.773,7.572H31.235A10.251,10.251,0,0,1,21,43.689v-.182a.274.274,0,0,1,.274-.274h8.892a.3.3,0,0,1,.289.336,3.035,3.035,0,0,0,.318,1.707,3.129,3.129,0,0,0,2.8,1.742h4.4V43.582H33.628a.28.28,0,0,1-.226-.44c.047-.072.1-.148.157-.233.412-.585,1-1.494,1.585-2.528a19.8,19.8,0,0,0,1.1-2.192c.063-.135.113-.274.163-.409.085-.239.173-.462.236-.685.063-.189.113-.387.163-.572a8.857,8.857,0,0,0,.211-2.006c0-.274-.013-.56-.038-.833-.013-.3-.05-.6-.088-.9-.025-.264-.072-.525-.123-.8-.063-.4-.151-.8-.252-1.195l-.035-.151c-.075-.274-.138-.535-.226-.808-.248-.858-.535-1.695-.836-2.478-.11-.311-.236-.61-.362-.909-.185-.45-.374-.858-.547-1.245-.088-.176-.163-.336-.239-.5-.085-.186-.173-.371-.261-.547-.063-.135-.135-.261-.186-.387l-.538-.994a.175.175,0,0,1,.2-.255l3.364.912h.009c.006,0,.009,0,.013,0l.443.123.487.138.179.05v-2A1.739,1.739,0,0,1,39.709,20a1.707,1.707,0,0,1,1.223.512,1.758,1.758,0,0,1,.506,1.236v2.968l.359.1a.286.286,0,0,1,.082.041c.088.066.214.163.374.283.126.1.261.223.424.349.324.261.711.6,1.135.984.113.1.223.2.324.3.547.509,1.16,1.107,1.745,1.767.163.186.324.374.487.572s.336.4.487.6c.2.264.412.538.6.824.088.135.189.274.274.409.239.362.45.736.651,1.11.085.173.173.362.248.547a8,8,0,0,1,.513,1.519,1.9,1.9,0,0,1,.072.336v.025a2.878,2.878,0,0,1,.063.475,5.079,5.079,0,0,1-.088,1.569,5.717,5.717,0,0,1-.186.657c-.075.214-.151.437-.248.648a8.783,8.783,0,0,1-.676,1.283c-.085.151-.186.311-.286.462s-.223.311-.324.459c-.138.189-.286.387-.437.563a5.974,5.974,0,0,1-.424.535c-.211.248-.412.484-.623.711-.126.148-.261.3-.4.434-.135.151-.274.286-.4.412-.211.211-.387.374-.535.509l-.346.318a.282.282,0,0,1-.186.069H41.438v3.437h3.371a3.153,3.153,0,0,0,2.05-.758,24.59,24.59,0,0,0,2.085-2.05.262.262,0,0,1,.129-.079l9.31-2.692A.275.275,0,0,1,58.732,41.705Z" transform="translate(-21 -20)" fill="none" stroke="#ffd45e" stroke-width="2"/>
      </g>
    </g>
  </g>
</svg>
