<svg id="Group_135" data-name="Group 135" xmlns="http://www.w3.org/2000/svg" width="45" height="45" viewBox="0 0 45 45">
  <path id="Path_30276" data-name="Path 30276" d="M12.566,18.631a8.334,8.334,0,1,1,.619,0A3.408,3.408,0,0,0,12.566,18.631Z" transform="translate(3.99 1.75)" fill="none" stroke="#ffd45e" stroke-linecap="round" stroke-linejoin="round" stroke-width="2.5"/>
  <path id="Path_30277" data-name="Path 30277" d="M16.524,4a6.565,6.565,0,0,1,.244,13.125,2.118,2.118,0,0,0-.488,0" transform="translate(14.245 3.5)" fill="none" stroke="#ffd45e" stroke-linecap="round" stroke-linejoin="round" stroke-width="2.5"/>
  <path id="Path_30278" data-name="Path 30278" d="M5.748,26.767c5.156,3.45,13.613,3.45,18.769,0,4.537-3.037,4.537-7.987,0-11.006-5.138-3.431-13.594-3.431-18.769,0C1.211,18.8,1.211,23.748,5.748,26.767Z" transform="translate(2.052 11.539)" fill="none" stroke="#ffd45e" stroke-linecap="round" stroke-linejoin="round" stroke-width="2.5"/>
  <path id="Path_30279" data-name="Path 30279" d="M18.34,25.25a9.07,9.07,0,0,0,3.675-1.631,4.749,4.749,0,0,0,0-8.006A9.325,9.325,0,0,0,18.4,14" transform="translate(16.048 12.25)" fill="none" stroke="#ffd45e" stroke-linecap="round" stroke-linejoin="round" stroke-width="2.5"/>
  <path id="Path_30280" data-name="Path 30280" d="M0,45V0H45V45Z" fill="none" fill-rule="evenodd" opacity="0.01"/>
</svg>
