<svg id="Group_381" data-name="Group 381" xmlns="http://www.w3.org/2000/svg" width="16" height="16" viewBox="0 0 16 16">
  <path id="Path_30372" data-name="Path 30372" d="M0,16V0H16V16Z" fill="#878787" fill-rule="evenodd" opacity="0.01"/>
  <path id="Path_30373" data-name="Path 30373" d="M8.86,4.9a6.18,6.18,0,0,0-1.784.266.5.5,0,1,1-.286-.958A7.179,7.179,0,0,1,8.86,3.9,6.275,6.275,0,1,1,3.637,6.689a.5.5,0,1,1,.832.555A5.281,5.281,0,1,0,8.86,4.9Z" transform="translate(-0.86 -1.3)" fill="#878787" fill-rule="evenodd"/>
  <path id="Path_30374" data-name="Path 30374" d="M9.875,1.373a.5.5,0,0,1,.049.705L8,4.292a.5.5,0,0,1-.754-.657L9.17,1.422A.5.5,0,0,1,9.875,1.373Z" transform="translate(-2.373 -0.417)" fill="#878787" fill-rule="evenodd"/>
  <path id="Path_30375" data-name="Path 30375" d="M7.216,4.775a.5.5,0,0,1,.7-.109l2.247,1.64a.5.5,0,0,1-.59.808L7.325,5.474A.5.5,0,0,1,7.216,4.775Z" transform="translate(-2.373 -1.523)" fill="#878787" fill-rule="evenodd"/>
</svg>
