<svg xmlns="http://www.w3.org/2000/svg" xmlns:xlink="http://www.w3.org/1999/xlink" width="32.61" height="35.881" viewBox="0 0 32.61 35.881">
  <defs>
    <clipPath id="clip-path">
      <rect id="Rectangle_5665" data-name="Rectangle 5665" width="32.61" height="35.881" transform="translate(0 0)" fill="none"/>
    </clipPath>
  </defs>
  <g id="Group_477" data-name="Group 477" transform="translate(0 0)">
    <g id="Group_476" data-name="Group 476" clip-path="url(#clip-path)">
      <path id="Path_30466" data-name="Path 30466" d="M31.06,15.261l-10-5.77-5.71-3.3L5.35.411a3.075,3.075,0,0,0-3.09.01A3.026,3.026,0,0,0,.72,3.091v11.54a2.606,2.606,0,0,1,.3-.2l1.7-.98V3.091a1.059,1.059,0,0,1,.54-.94A1.1,1.1,0,0,1,3.81,2a1.081,1.081,0,0,1,.54.15l8.97,5.18,7.77,4.48,8.97,5.18a1.073,1.073,0,0,1,.55.95,1.051,1.051,0,0,1-.55.94l-8.97,5.18-7.77,4.49-8.97,5.18a1.085,1.085,0,0,1-1.63-.95V22.421l-1.7-.98a2.606,2.606,0,0,1-.3-.2v11.54a3.053,3.053,0,0,0,1.54,2.68,3.114,3.114,0,0,0,1.55.42,3.051,3.051,0,0,0,1.54-.42l10-5.77,5.71-3.31,10-5.77a3.083,3.083,0,0,0,0-5.35" fill="#ffd45e"/>
      <path id="Path_30467" data-name="Path 30467" d="M2,17.941a1.032,1.032,0,0,1,.52-.91l12.8-7.39-2-1.15-9.6,5.54L1.52,15.3c-.07.04-.14.09-.21.14l-.39.32c-.01,0-.03.02-.04.03a3.054,3.054,0,0,0,0,4.29c.01.01.03.03.04.03l.39.32a.138.138,0,0,0,.04.03.991.991,0,0,0,.17.11l2.2,1.27,9.6,5.55,2-1.15-12.8-7.4a1.019,1.019,0,0,1-.52-.9" fill="#ffd45e"/>
    </g>
  </g>
</svg>
