<svg xmlns="http://www.w3.org/2000/svg" width="20" height="20" viewBox="0 0 20 20">
  <g id="Group_423" data-name="Group 423" transform="translate(-1193.055 -237.268)">
    <g id="Group_420" data-name="Group 420" transform="translate(1195.54 238.639)">
      <path id="Path_30381" data-name="Path 30381" d="M16.271,2.1a1.7,1.7,0,0,1,1.694,1.694V5.656A3.161,3.161,0,0,1,17.118,7.6l-3.641,3.218a2.756,2.756,0,0,0-.847,1.948V16.41a1.886,1.886,0,0,1-.762,1.44l-1.185.762a1.726,1.726,0,0,1-2.625-1.44V12.685a3.273,3.273,0,0,0-.677-1.778L4.162,7.519A2.807,2.807,0,0,1,3.4,5.826V3.878A1.719,1.719,0,0,1,5.094,2.1Z" transform="translate(-3.4 -2.1)" fill="none" stroke="#acacac" stroke-linecap="round" stroke-linejoin="round" stroke-width="1"/>
      <path id="Path_30382" data-name="Path 30382" d="M10.175,2.1,6,8.789" transform="translate(-3.798 -2.1)" fill="none" stroke="#acacac" stroke-linecap="round" stroke-linejoin="round" stroke-width="1"/>
    </g>
    <rect id="Rectangle_5610" data-name="Rectangle 5610" width="20" height="20" transform="translate(1193.055 237.268)" fill="none"/>
  </g>
</svg>
